<?xml version="1.0" encoding="utf-8"?>
<!-- Generator: Adobe Illustrator 15.0.0, SVG Export Plug-In . SVG Version: 6.00 Build 0)  -->
<!DOCTYPE svg PUBLIC "-//W3C//DTD SVG 1.1//EN" "http://www.w3.org/Graphics/SVG/1.1/DTD/svg11.dtd">
<svg version="1.1" id="Layer_1" xmlns="http://www.w3.org/2000/svg" xmlns:xlink="http://www.w3.org/1999/xlink" x="0px" y="0px"
	 width="940px" height="114.635px" viewBox="0 0 940 114.635" enable-background="new 0 0 940 114.635" xml:space="preserve">
<g>
	<path fill="#DEDDDD" d="M127.928-39c5.149,0,10.228,0.224,15.097,0.667c17.015,1.544,42.184,5.455,65.465,15.316
		c23.404,9.914,40.178,23.759,49.855,41.151l0.18,0.323l0.346,0.128c6.639,2.464,14.567,3.713,23.564,3.713
		c0.906,0,1.837-0.013,2.75-0.038l648.825-5.353l0.104-0.001l0.103-0.022l0.096-0.023c2.06,0.127,5.007,8.326,5.007,21.116
		c0,12.912-2.922,21.002-5.017,21.118l-0.291,0.025l-647.833-4.873l-0.063,0l-0.063,0.008c-0.842,0.101-20.711,2.513-28.732,5.463
		l-0.307,0.113l-0.181,0.272c-9.412,14.18-23.56,25.86-42.05,34.718c-19.931,9.547-44.577,15.621-73.251,18.051
		c-5.972,0.506-12.038,0.762-18.03,0.762c-31.827,0-61.676-7.035-84.05-19.81C15.395,80.089,2.118,61.112,1.057,38.944
		C0.38,24.812,5.703,11.702,16.877-0.021C39.102-23.335,83.729-39,127.928-39 M127.928-40C68.256-40-2.309-10.421,0.058,38.992
		c2.282,47.68,60.296,75.643,123.443,75.643c6.006,0,12.059-0.253,18.114-0.766c59.874-5.074,97.707-25.577,116.05-53.212
		c8.003-2.944,28.506-5.409,28.506-5.409l648.186,4.875v-0.029c3.295-0.182,5.962-10.008,5.962-22.116
		c0-12.206-2.711-22.118-6.056-22.118c-0.091,0-0.175,0.029-0.262,0.048l-648.825,5.353c-0.934,0.025-1.847,0.038-2.741,0.038
		c-9.9,0-17.453-1.512-23.216-3.651c-21.561-38.75-73.977-53.154-116.104-56.978C138.168-39.779,133.092-40,127.928-40L127.928-40z"
		/>
</g>
<text transform="matrix(1 0 0 1 12.75 47.9526)" fill="#333333" font-family="'Helvetica-Bold'" font-size="36">C</text>
<text transform="matrix(0.7 0 0 0.7 38.748 47.9526)" fill="#333333" font-family="'Helvetica-Bold'" font-size="36">am</text>
<text transform="matrix(1 0 0 1 171 47.9526)" fill="#333333" font-family="'Helvetica-Bold'" font-size="36">A</text>
<text transform="matrix(0.7 0 0 0.7 196.998 47.9526)" fill="#333333" font-family="'Helvetica-Bold'" font-size="36">ssassins</text>
<g>
	<circle fill="none" stroke="#333333" stroke-width="2" stroke-miterlimit="10" cx="124.466" cy="36.923" r="25.997"/>
	<line fill="none" stroke="#333333" stroke-miterlimit="10" x1="124.466" y1="76.813" x2="124.466" y2="47.953"/>
	<line fill="none" stroke="#333333" stroke-width="2" stroke-miterlimit="10" x1="124.466" y1="77.351" x2="124.466" y2="48.49"/>
	<line fill="none" stroke="#333333" stroke-width="2" stroke-miterlimit="10" x1="164.75" y1="36.923" x2="135.89" y2="36.923"/>
	<line fill="none" stroke="#333333" stroke-width="2" stroke-miterlimit="10" x1="124.466" y1="26.145" x2="124.466" y2="-2.716"/>
	<line fill="none" stroke="#333333" stroke-width="2" stroke-miterlimit="10" x1="112.899" y1="36.923" x2="84.039" y2="36.923"/>
	<circle fill="none" stroke="#333333" stroke-miterlimit="10" cx="124.466" cy="36.924" r="18.4"/>
	<line fill="none" stroke="#333333" stroke-miterlimit="10" x1="128.479" y1="36.923" x2="120.453" y2="36.923"/>
	<line fill="none" stroke="#333333" stroke-miterlimit="10" x1="124.466" y1="32.909" x2="124.466" y2="40.935"/>
</g>
</svg>
